<?xml version="1.0" encoding="utf-8" standalone="no"?>
<!DOCTYPE svg PUBLIC "-//W3C//DTD SVG 1.1//EN"
  "http://www.w3.org/Graphics/SVG/1.1/DTD/svg11.dtd">
<svg xmlns:xlink="http://www.w3.org/1999/xlink" width="1179.613438pt" height="1167.349375pt" viewBox="0 0 1179.613438 1167.349375" xmlns="http://www.w3.org/2000/svg" version="1.1">
 <metadata>
  <rdf:RDF xmlns:dc="http://purl.org/dc/elements/1.1/" xmlns:cc="http://creativecommons.org/ns#" xmlns:rdf="http://www.w3.org/1999/02/22-rdf-syntax-ns#">
   <cc:Work>
    <dc:type rdf:resource="http://purl.org/dc/dcmitype/StillImage"/>
    <dc:date>2025-10-09T15:58:58.587452</dc:date>
    <dc:format>image/svg+xml</dc:format>
    <dc:creator>
     <cc:Agent>
      <dc:title>Matplotlib v3.9.1.post1, https://matplotlib.org/</dc:title>
     </cc:Agent>
    </dc:creator>
   </cc:Work>
  </rdf:RDF>
 </metadata>
 <defs>
  <style type="text/css">*{stroke-linejoin: round; stroke-linecap: butt}</style>
 </defs>
 <g id="figure_1">
  <g id="patch_1">
   <path d="M 0 1167.349375 
L 1179.613437 1167.349375 
L 1179.613437 0 
L 0 0 
z
" style="fill: #ffffff"/>
  </g>
  <g id="axes_1">
   <g id="patch_2">
    <path d="M 56.413438 1116 
L 1172.413438 1116 
L 1172.413438 7.2 
L 56.413438 7.2 
z
" style="fill: #ffffff"/>
   </g>
   <g id="PathCollection_1">
    <defs>
     <path id="ma5490ec7c1" d="M 0 3 
C 0.795609 3 1.55874 2.683901 2.12132 2.12132 
C 2.683901 1.55874 3 0.795609 3 0 
C 3 -0.795609 2.683901 -1.55874 2.12132 -2.12132 
C 1.55874 -2.683901 0.795609 -3 0 -3 
C -0.795609 -3 -1.55874 -2.683901 -2.12132 -2.12132 
C -2.683901 -1.55874 -3 -0.795609 -3 0 
C -3 0.795609 -2.683901 1.55874 -2.12132 2.12132 
C -1.55874 2.683901 -0.795609 3 0 3 
z
" style="stroke: #008000"/>
    </defs>
    <g clip-path="url(#p61949dec68)">
     <use xlink:href="#ma5490ec7c1" x="669.981089" y="825.626393" style="fill: #008000; stroke: #008000"/>
     <use xlink:href="#ma5490ec7c1" x="316.674265" y="1056.067023" style="fill: #008000; stroke: #008000"/>
     <use xlink:href="#ma5490ec7c1" x="449.768512" y="984.80522" style="fill: #008000; stroke: #008000"/>
     <use xlink:href="#ma5490ec7c1" x="239.567346" y="1035.39379" style="fill: #008000; stroke: #008000"/>
     <use xlink:href="#ma5490ec7c1" x="239.567346" y="1035.39379" style="fill: #008000; stroke: #008000"/>
     <use xlink:href="#ma5490ec7c1" x="647.23153" y="522.49076" style="fill: #008000; stroke: #008000"/>
     <use xlink:href="#ma5490ec7c1" x="549.883878" y="607.150169" style="fill: #008000; stroke: #008000"/>
     <use xlink:href="#ma5490ec7c1" x="196.718455" y="517.688213" style="fill: #008000; stroke: #008000"/>
     <use xlink:href="#ma5490ec7c1" x="549.883878" y="607.150169" style="fill: #008000; stroke: #008000"/>
     <use xlink:href="#ma5490ec7c1" x="560.174317" y="361.127115" style="fill: #008000; stroke: #008000"/>
     <use xlink:href="#ma5490ec7c1" x="203.431157" y="358.999019" style="fill: #008000; stroke: #008000"/>
     <use xlink:href="#ma5490ec7c1" x="203.431581" y="358.99903" style="fill: #008000; stroke: #008000"/>
     <use xlink:href="#ma5490ec7c1" x="559.996517" y="361.238386" style="fill: #008000; stroke: #008000"/>
     <use xlink:href="#ma5490ec7c1" x="196.718301" y="517.688259" style="fill: #008000; stroke: #008000"/>
     <use xlink:href="#ma5490ec7c1" x="456.684752" y="175.369687" style="fill: #008000; stroke: #008000"/>
     <use xlink:href="#ma5490ec7c1" x="443.985456" y="523.724701" style="fill: #008000; stroke: #008000"/>
     <use xlink:href="#ma5490ec7c1" x="572.084788" y="254.267233" style="fill: #008000; stroke: #008000"/>
     <use xlink:href="#ma5490ec7c1" x="647.23153" y="522.49076" style="fill: #008000; stroke: #008000"/>
     <use xlink:href="#ma5490ec7c1" x="456.684752" y="175.369687" style="fill: #008000; stroke: #008000"/>
     <use xlink:href="#ma5490ec7c1" x="669.981089" y="825.626393" style="fill: #008000; stroke: #008000"/>
     <use xlink:href="#ma5490ec7c1" x="438.621538" y="1065.6" style="fill: #008000; stroke: #008000"/>
     <use xlink:href="#ma5490ec7c1" x="548.451466" y="1033.925387" style="fill: #008000; stroke: #008000"/>
     <use xlink:href="#ma5490ec7c1" x="669.981089" y="825.626393" style="fill: #008000; stroke: #008000"/>
     <use xlink:href="#ma5490ec7c1" x="172.499197" y="821.428896" style="fill: #008000; stroke: #008000"/>
     <use xlink:href="#ma5490ec7c1" x="687.462039" y="366.373812" style="fill: #008000; stroke: #008000"/>
     <use xlink:href="#ma5490ec7c1" x="699.005605" y="252.953421" style="fill: #008000; stroke: #008000"/>
     <use xlink:href="#ma5490ec7c1" x="548.451466" y="1033.925387" style="fill: #008000; stroke: #008000"/>
     <use xlink:href="#ma5490ec7c1" x="251.847688" y="437.342087" style="fill: #008000; stroke: #008000"/>
     <use xlink:href="#ma5490ec7c1" x="278.585196" y="606.386146" style="fill: #008000; stroke: #008000"/>
     <use xlink:href="#ma5490ec7c1" x="196.718571" y="517.688213" style="fill: #008000; stroke: #008000"/>
     <use xlink:href="#ma5490ec7c1" x="278.585196" y="606.386146" style="fill: #008000; stroke: #008000"/>
     <use xlink:href="#ma5490ec7c1" x="492.779817" y="758.119957" style="fill: #008000; stroke: #008000"/>
     <use xlink:href="#ma5490ec7c1" x="570.402498" y="433.696039" style="fill: #008000; stroke: #008000"/>
     <use xlink:href="#ma5490ec7c1" x="388.025756" y="890.737895" style="fill: #008000; stroke: #008000"/>
     <use xlink:href="#ma5490ec7c1" x="111.471105" y="835.239295" style="fill: #008000; stroke: #008000"/>
     <use xlink:href="#ma5490ec7c1" x="290.924893" y="689.88953" style="fill: #008000; stroke: #008000"/>
     <use xlink:href="#ma5490ec7c1" x="111.470912" y="835.239248" style="fill: #008000; stroke: #008000"/>
     <use xlink:href="#ma5490ec7c1" x="111.470912" y="835.239248" style="fill: #008000; stroke: #008000"/>
     <use xlink:href="#ma5490ec7c1" x="234.26982" y="761.385149" style="fill: #008000; stroke: #008000"/>
     <use xlink:href="#ma5490ec7c1" x="572.084497" y="254.267216" style="fill: #008000; stroke: #008000"/>
     <use xlink:href="#ma5490ec7c1" x="572.085056" y="254.267239" style="fill: #008000; stroke: #008000"/>
     <use xlink:href="#ma5490ec7c1" x="669.981089" y="825.626393" style="fill: #008000; stroke: #008000"/>
     <use xlink:href="#ma5490ec7c1" x="228.040742" y="253.411699" style="fill: #008000; stroke: #008000"/>
     <use xlink:href="#ma5490ec7c1" x="555.035278" y="690.406687" style="fill: #008000; stroke: #008000"/>
     <use xlink:href="#ma5490ec7c1" x="544.930099" y="920.612254" style="fill: #008000; stroke: #008000"/>
     <use xlink:href="#ma5490ec7c1" x="296.030876" y="826.891564" style="fill: #008000; stroke: #008000"/>
     <use xlink:href="#ma5490ec7c1" x="290.924893" y="689.88953" style="fill: #008000; stroke: #008000"/>
     <use xlink:href="#ma5490ec7c1" x="669.981089" y="825.626393" style="fill: #008000; stroke: #008000"/>
     <use xlink:href="#ma5490ec7c1" x="771.286358" y="57.6" style="fill: #008000; stroke: #008000"/>
     <use xlink:href="#ma5490ec7c1" x="355.52508" y="126.234395" style="fill: #008000; stroke: #008000"/>
     <use xlink:href="#ma5490ec7c1" x="161.311552" y="252.394064" style="fill: #008000; stroke: #008000"/>
     <use xlink:href="#ma5490ec7c1" x="1121.686165" y="182.371189" style="fill: #008000; stroke: #008000"/>
     <use xlink:href="#ma5490ec7c1" x="598.734812" y="437.740511" style="fill: #008000; stroke: #008000"/>
     <use xlink:href="#ma5490ec7c1" x="922.213327" y="114.183687" style="fill: #008000; stroke: #008000"/>
     <use xlink:href="#ma5490ec7c1" x="326.538915" y="121.788057" style="fill: #008000; stroke: #008000"/>
     <use xlink:href="#ma5490ec7c1" x="241.267037" y="182.327253" style="fill: #008000; stroke: #008000"/>
     <use xlink:href="#ma5490ec7c1" x="647.23153" y="522.49076" style="fill: #008000; stroke: #008000"/>
     <use xlink:href="#ma5490ec7c1" x="289.543832" y="924.784202" style="fill: #008000; stroke: #008000"/>
     <use xlink:href="#ma5490ec7c1" x="107.14071" y="250.970677" style="fill: #008000; stroke: #008000"/>
     <use xlink:href="#ma5490ec7c1" x="251.847688" y="437.342087" style="fill: #008000; stroke: #008000"/>
     <use xlink:href="#ma5490ec7c1" x="555.035136" y="690.406594" style="fill: #008000; stroke: #008000"/>
     <use xlink:href="#ma5490ec7c1" x="203.431465" y="358.999053" style="fill: #008000; stroke: #008000"/>
    </g>
   </g>
   <g id="matplotlib.axis_1">
    <g id="xtick_1">
     <g id="line2d_1">
      <path d="M 66.681412 1116 
L 66.681412 7.2 
" clip-path="url(#p61949dec68)" style="fill: none; stroke-dasharray: 5.12,1.28,0.8,1.28; stroke-dashoffset: 0; stroke: #000000; stroke-width: 0.8"/>
     </g>
     <g id="line2d_2">
      <defs>
       <path id="m707bb502f4" d="M 0 0 
L 0 3.5 
" style="stroke: #000000; stroke-width: 0.8"/>
      </defs>
      <g>
       <use xlink:href="#m707bb502f4" x="66.681412" y="1116" style="stroke: #000000; stroke-width: 0.8"/>
      </g>
     </g>
     <g id="text_1">
      <!-- −0.8 -->
      <g transform="translate(54.540006 1130.598438) scale(0.1 -0.1)">
       <defs>
        <path id="DejaVuSans-2212" d="M 678 2272 
L 4684 2272 
L 4684 1741 
L 678 1741 
L 678 2272 
z
" transform="scale(0.015625)"/>
        <path id="DejaVuSans-30" d="M 2034 4250 
Q 1547 4250 1301 3770 
Q 1056 3291 1056 2328 
Q 1056 1369 1301 889 
Q 1547 409 2034 409 
Q 2525 409 2770 889 
Q 3016 1369 3016 2328 
Q 3016 3291 2770 3770 
Q 2525 4250 2034 4250 
z
M 2034 4750 
Q 2819 4750 3233 4129 
Q 3647 3509 3647 2328 
Q 3647 1150 3233 529 
Q 2819 -91 2034 -91 
Q 1250 -91 836 529 
Q 422 1150 422 2328 
Q 422 3509 836 4129 
Q 1250 4750 2034 4750 
z
" transform="scale(0.015625)"/>
        <path id="DejaVuSans-2e" d="M 684 794 
L 1344 794 
L 1344 0 
L 684 0 
L 684 794 
z
" transform="scale(0.015625)"/>
        <path id="DejaVuSans-38" d="M 2034 2216 
Q 1584 2216 1326 1975 
Q 1069 1734 1069 1313 
Q 1069 891 1326 650 
Q 1584 409 2034 409 
Q 2484 409 2743 651 
Q 3003 894 3003 1313 
Q 3003 1734 2745 1975 
Q 2488 2216 2034 2216 
z
M 1403 2484 
Q 997 2584 770 2862 
Q 544 3141 544 3541 
Q 544 4100 942 4425 
Q 1341 4750 2034 4750 
Q 2731 4750 3128 4425 
Q 3525 4100 3525 3541 
Q 3525 3141 3298 2862 
Q 3072 2584 2669 2484 
Q 3125 2378 3379 2068 
Q 3634 1759 3634 1313 
Q 3634 634 3220 271 
Q 2806 -91 2034 -91 
Q 1263 -91 848 271 
Q 434 634 434 1313 
Q 434 1759 690 2068 
Q 947 2378 1403 2484 
z
M 1172 3481 
Q 1172 3119 1398 2916 
Q 1625 2713 2034 2713 
Q 2441 2713 2670 2916 
Q 2900 3119 2900 3481 
Q 2900 3844 2670 4047 
Q 2441 4250 2034 4250 
Q 1625 4250 1398 4047 
Q 1172 3844 1172 3481 
z
" transform="scale(0.015625)"/>
       </defs>
       <use xlink:href="#DejaVuSans-2212"/>
       <use xlink:href="#DejaVuSans-30" x="83.789062"/>
       <use xlink:href="#DejaVuSans-2e" x="147.412109"/>
       <use xlink:href="#DejaVuSans-38" x="179.199219"/>
      </g>
     </g>
    </g>
    <g id="xtick_2">
     <g id="line2d_3">
      <path d="M 195.882949 1116 
L 195.882949 7.2 
" clip-path="url(#p61949dec68)" style="fill: none; stroke-dasharray: 5.12,1.28,0.8,1.28; stroke-dashoffset: 0; stroke: #000000; stroke-width: 0.8"/>
     </g>
     <g id="line2d_4">
      <g>
       <use xlink:href="#m707bb502f4" x="195.882949" y="1116" style="stroke: #000000; stroke-width: 0.8"/>
      </g>
     </g>
     <g id="text_2">
      <!-- −0.6 -->
      <g transform="translate(183.741543 1130.598438) scale(0.1 -0.1)">
       <defs>
        <path id="DejaVuSans-36" d="M 2113 2584 
Q 1688 2584 1439 2293 
Q 1191 2003 1191 1497 
Q 1191 994 1439 701 
Q 1688 409 2113 409 
Q 2538 409 2786 701 
Q 3034 994 3034 1497 
Q 3034 2003 2786 2293 
Q 2538 2584 2113 2584 
z
M 3366 4563 
L 3366 3988 
Q 3128 4100 2886 4159 
Q 2644 4219 2406 4219 
Q 1781 4219 1451 3797 
Q 1122 3375 1075 2522 
Q 1259 2794 1537 2939 
Q 1816 3084 2150 3084 
Q 2853 3084 3261 2657 
Q 3669 2231 3669 1497 
Q 3669 778 3244 343 
Q 2819 -91 2113 -91 
Q 1303 -91 875 529 
Q 447 1150 447 2328 
Q 447 3434 972 4092 
Q 1497 4750 2381 4750 
Q 2619 4750 2861 4703 
Q 3103 4656 3366 4563 
z
" transform="scale(0.015625)"/>
       </defs>
       <use xlink:href="#DejaVuSans-2212"/>
       <use xlink:href="#DejaVuSans-30" x="83.789062"/>
       <use xlink:href="#DejaVuSans-2e" x="147.412109"/>
       <use xlink:href="#DejaVuSans-36" x="179.199219"/>
      </g>
     </g>
    </g>
    <g id="xtick_3">
     <g id="line2d_5">
      <path d="M 325.084486 1116 
L 325.084486 7.2 
" clip-path="url(#p61949dec68)" style="fill: none; stroke-dasharray: 5.12,1.28,0.8,1.28; stroke-dashoffset: 0; stroke: #000000; stroke-width: 0.8"/>
     </g>
     <g id="line2d_6">
      <g>
       <use xlink:href="#m707bb502f4" x="325.084486" y="1116" style="stroke: #000000; stroke-width: 0.8"/>
      </g>
     </g>
     <g id="text_3">
      <!-- −0.4 -->
      <g transform="translate(312.94308 1130.598438) scale(0.1 -0.1)">
       <defs>
        <path id="DejaVuSans-34" d="M 2419 4116 
L 825 1625 
L 2419 1625 
L 2419 4116 
z
M 2253 4666 
L 3047 4666 
L 3047 1625 
L 3713 1625 
L 3713 1100 
L 3047 1100 
L 3047 0 
L 2419 0 
L 2419 1100 
L 313 1100 
L 313 1709 
L 2253 4666 
z
" transform="scale(0.015625)"/>
       </defs>
       <use xlink:href="#DejaVuSans-2212"/>
       <use xlink:href="#DejaVuSans-30" x="83.789062"/>
       <use xlink:href="#DejaVuSans-2e" x="147.412109"/>
       <use xlink:href="#DejaVuSans-34" x="179.199219"/>
      </g>
     </g>
    </g>
    <g id="xtick_4">
     <g id="line2d_7">
      <path d="M 454.286023 1116 
L 454.286023 7.2 
" clip-path="url(#p61949dec68)" style="fill: none; stroke-dasharray: 5.12,1.28,0.8,1.28; stroke-dashoffset: 0; stroke: #000000; stroke-width: 0.8"/>
     </g>
     <g id="line2d_8">
      <g>
       <use xlink:href="#m707bb502f4" x="454.286023" y="1116" style="stroke: #000000; stroke-width: 0.8"/>
      </g>
     </g>
     <g id="text_4">
      <!-- −0.2 -->
      <g transform="translate(442.144617 1130.598438) scale(0.1 -0.1)">
       <defs>
        <path id="DejaVuSans-32" d="M 1228 531 
L 3431 531 
L 3431 0 
L 469 0 
L 469 531 
Q 828 903 1448 1529 
Q 2069 2156 2228 2338 
Q 2531 2678 2651 2914 
Q 2772 3150 2772 3378 
Q 2772 3750 2511 3984 
Q 2250 4219 1831 4219 
Q 1534 4219 1204 4116 
Q 875 4013 500 3803 
L 500 4441 
Q 881 4594 1212 4672 
Q 1544 4750 1819 4750 
Q 2544 4750 2975 4387 
Q 3406 4025 3406 3419 
Q 3406 3131 3298 2873 
Q 3191 2616 2906 2266 
Q 2828 2175 2409 1742 
Q 1991 1309 1228 531 
z
" transform="scale(0.015625)"/>
       </defs>
       <use xlink:href="#DejaVuSans-2212"/>
       <use xlink:href="#DejaVuSans-30" x="83.789062"/>
       <use xlink:href="#DejaVuSans-2e" x="147.412109"/>
       <use xlink:href="#DejaVuSans-32" x="179.199219"/>
      </g>
     </g>
    </g>
    <g id="xtick_5">
     <g id="line2d_9">
      <path d="M 583.487561 1116 
L 583.487561 7.2 
" clip-path="url(#p61949dec68)" style="fill: none; stroke-dasharray: 5.12,1.28,0.8,1.28; stroke-dashoffset: 0; stroke: #000000; stroke-width: 0.8"/>
     </g>
     <g id="line2d_10">
      <g>
       <use xlink:href="#m707bb502f4" x="583.487561" y="1116" style="stroke: #000000; stroke-width: 0.8"/>
      </g>
     </g>
     <g id="text_5">
      <!-- 0.0 -->
      <g transform="translate(575.535998 1130.598438) scale(0.1 -0.1)">
       <use xlink:href="#DejaVuSans-30"/>
       <use xlink:href="#DejaVuSans-2e" x="63.623047"/>
       <use xlink:href="#DejaVuSans-30" x="95.410156"/>
      </g>
     </g>
    </g>
    <g id="xtick_6">
     <g id="line2d_11">
      <path d="M 712.689098 1116 
L 712.689098 7.2 
" clip-path="url(#p61949dec68)" style="fill: none; stroke-dasharray: 5.12,1.28,0.8,1.28; stroke-dashoffset: 0; stroke: #000000; stroke-width: 0.8"/>
     </g>
     <g id="line2d_12">
      <g>
       <use xlink:href="#m707bb502f4" x="712.689098" y="1116" style="stroke: #000000; stroke-width: 0.8"/>
      </g>
     </g>
     <g id="text_6">
      <!-- 0.2 -->
      <g transform="translate(704.737535 1130.598438) scale(0.1 -0.1)">
       <use xlink:href="#DejaVuSans-30"/>
       <use xlink:href="#DejaVuSans-2e" x="63.623047"/>
       <use xlink:href="#DejaVuSans-32" x="95.410156"/>
      </g>
     </g>
    </g>
    <g id="xtick_7">
     <g id="line2d_13">
      <path d="M 841.890635 1116 
L 841.890635 7.2 
" clip-path="url(#p61949dec68)" style="fill: none; stroke-dasharray: 5.12,1.28,0.8,1.28; stroke-dashoffset: 0; stroke: #000000; stroke-width: 0.8"/>
     </g>
     <g id="line2d_14">
      <g>
       <use xlink:href="#m707bb502f4" x="841.890635" y="1116" style="stroke: #000000; stroke-width: 0.8"/>
      </g>
     </g>
     <g id="text_7">
      <!-- 0.4 -->
      <g transform="translate(833.939072 1130.598438) scale(0.1 -0.1)">
       <use xlink:href="#DejaVuSans-30"/>
       <use xlink:href="#DejaVuSans-2e" x="63.623047"/>
       <use xlink:href="#DejaVuSans-34" x="95.410156"/>
      </g>
     </g>
    </g>
    <g id="xtick_8">
     <g id="line2d_15">
      <path d="M 971.092172 1116 
L 971.092172 7.2 
" clip-path="url(#p61949dec68)" style="fill: none; stroke-dasharray: 5.12,1.28,0.8,1.28; stroke-dashoffset: 0; stroke: #000000; stroke-width: 0.8"/>
     </g>
     <g id="line2d_16">
      <g>
       <use xlink:href="#m707bb502f4" x="971.092172" y="1116" style="stroke: #000000; stroke-width: 0.8"/>
      </g>
     </g>
     <g id="text_8">
      <!-- 0.6 -->
      <g transform="translate(963.140609 1130.598438) scale(0.1 -0.1)">
       <use xlink:href="#DejaVuSans-30"/>
       <use xlink:href="#DejaVuSans-2e" x="63.623047"/>
       <use xlink:href="#DejaVuSans-36" x="95.410156"/>
      </g>
     </g>
    </g>
    <g id="xtick_9">
     <g id="line2d_17">
      <path d="M 1100.293709 1116 
L 1100.293709 7.2 
" clip-path="url(#p61949dec68)" style="fill: none; stroke-dasharray: 5.12,1.28,0.8,1.28; stroke-dashoffset: 0; stroke: #000000; stroke-width: 0.8"/>
     </g>
     <g id="line2d_18">
      <g>
       <use xlink:href="#m707bb502f4" x="1100.293709" y="1116" style="stroke: #000000; stroke-width: 0.8"/>
      </g>
     </g>
     <g id="text_9">
      <!-- 0.8 -->
      <g transform="translate(1092.342147 1130.598438) scale(0.1 -0.1)">
       <use xlink:href="#DejaVuSans-30"/>
       <use xlink:href="#DejaVuSans-2e" x="63.623047"/>
       <use xlink:href="#DejaVuSans-38" x="95.410156"/>
      </g>
     </g>
    </g>
    <g id="text_10">
     <!-- TSNE_C1 -->
     <g transform="translate(556.189062 1154.490625) scale(0.24 -0.24)">
      <defs>
       <path id="DejaVuSans-Bold-54" d="M 31 4666 
L 4331 4666 
L 4331 3756 
L 2784 3756 
L 2784 0 
L 1581 0 
L 1581 3756 
L 31 3756 
L 31 4666 
z
" transform="scale(0.015625)"/>
       <path id="DejaVuSans-Bold-53" d="M 3834 4519 
L 3834 3531 
Q 3450 3703 3084 3790 
Q 2719 3878 2394 3878 
Q 1963 3878 1756 3759 
Q 1550 3641 1550 3391 
Q 1550 3203 1689 3098 
Q 1828 2994 2194 2919 
L 2706 2816 
Q 3484 2659 3812 2340 
Q 4141 2022 4141 1434 
Q 4141 663 3683 286 
Q 3225 -91 2284 -91 
Q 1841 -91 1394 -6 
Q 947 78 500 244 
L 500 1259 
Q 947 1022 1364 901 
Q 1781 781 2169 781 
Q 2563 781 2772 912 
Q 2981 1044 2981 1288 
Q 2981 1506 2839 1625 
Q 2697 1744 2272 1838 
L 1806 1941 
Q 1106 2091 782 2419 
Q 459 2747 459 3303 
Q 459 4000 909 4375 
Q 1359 4750 2203 4750 
Q 2588 4750 2994 4692 
Q 3400 4634 3834 4519 
z
" transform="scale(0.015625)"/>
       <path id="DejaVuSans-Bold-4e" d="M 588 4666 
L 1931 4666 
L 3628 1466 
L 3628 4666 
L 4769 4666 
L 4769 0 
L 3425 0 
L 1728 3200 
L 1728 0 
L 588 0 
L 588 4666 
z
" transform="scale(0.015625)"/>
       <path id="DejaVuSans-Bold-45" d="M 588 4666 
L 3834 4666 
L 3834 3756 
L 1791 3756 
L 1791 2888 
L 3713 2888 
L 3713 1978 
L 1791 1978 
L 1791 909 
L 3903 909 
L 3903 0 
L 588 0 
L 588 4666 
z
" transform="scale(0.015625)"/>
       <path id="DejaVuSans-Bold-5f" d="M 3200 -916 
L 3200 -1509 
L 0 -1509 
L 0 -916 
L 3200 -916 
z
" transform="scale(0.015625)"/>
       <path id="DejaVuSans-Bold-43" d="M 4288 256 
Q 3956 84 3597 -3 
Q 3238 -91 2847 -91 
Q 1681 -91 1000 561 
Q 319 1213 319 2328 
Q 319 3447 1000 4098 
Q 1681 4750 2847 4750 
Q 3238 4750 3597 4662 
Q 3956 4575 4288 4403 
L 4288 3438 
Q 3953 3666 3628 3772 
Q 3303 3878 2944 3878 
Q 2300 3878 1931 3465 
Q 1563 3053 1563 2328 
Q 1563 1606 1931 1193 
Q 2300 781 2944 781 
Q 3303 781 3628 887 
Q 3953 994 4288 1222 
L 4288 256 
z
" transform="scale(0.015625)"/>
       <path id="DejaVuSans-Bold-31" d="M 750 831 
L 1813 831 
L 1813 3847 
L 722 3622 
L 722 4441 
L 1806 4666 
L 2950 4666 
L 2950 831 
L 4013 831 
L 4013 0 
L 750 0 
L 750 831 
z
" transform="scale(0.015625)"/>
      </defs>
      <use xlink:href="#DejaVuSans-Bold-54"/>
      <use xlink:href="#DejaVuSans-Bold-53" x="68.212891"/>
      <use xlink:href="#DejaVuSans-Bold-4e" x="140.234375"/>
      <use xlink:href="#DejaVuSans-Bold-45" x="223.925781"/>
      <use xlink:href="#DejaVuSans-Bold-5f" x="292.236328"/>
      <use xlink:href="#DejaVuSans-Bold-43" x="342.236328"/>
      <use xlink:href="#DejaVuSans-Bold-31" x="415.625"/>
     </g>
    </g>
   </g>
   <g id="matplotlib.axis_2">
    <g id="ytick_1">
     <g id="line2d_19">
      <path d="M 56.413438 1023.74876 
L 1172.413438 1023.74876 
" clip-path="url(#p61949dec68)" style="fill: none; stroke-dasharray: 5.12,1.28,0.8,1.28; stroke-dashoffset: 0; stroke: #000000; stroke-width: 0.8"/>
     </g>
     <g id="line2d_20">
      <defs>
       <path id="m331aec3d1c" d="M 0 0 
L -3.5 0 
" style="stroke: #000000; stroke-width: 0.8"/>
      </defs>
      <g>
       <use xlink:href="#m331aec3d1c" x="56.413438" y="1023.74876" style="stroke: #000000; stroke-width: 0.8"/>
      </g>
     </g>
     <g id="text_11">
      <!-- −8 -->
      <g transform="translate(34.67125 1027.547979) scale(0.1 -0.1)">
       <use xlink:href="#DejaVuSans-2212"/>
       <use xlink:href="#DejaVuSans-38" x="83.789062"/>
      </g>
     </g>
    </g>
    <g id="ytick_2">
     <g id="line2d_21">
      <path d="M 56.413438 829.974268 
L 1172.413438 829.974268 
" clip-path="url(#p61949dec68)" style="fill: none; stroke-dasharray: 5.12,1.28,0.8,1.28; stroke-dashoffset: 0; stroke: #000000; stroke-width: 0.8"/>
     </g>
     <g id="line2d_22">
      <g>
       <use xlink:href="#m331aec3d1c" x="56.413438" y="829.974268" style="stroke: #000000; stroke-width: 0.8"/>
      </g>
     </g>
     <g id="text_12">
      <!-- −6 -->
      <g transform="translate(34.67125 833.773487) scale(0.1 -0.1)">
       <use xlink:href="#DejaVuSans-2212"/>
       <use xlink:href="#DejaVuSans-36" x="83.789062"/>
      </g>
     </g>
    </g>
    <g id="ytick_3">
     <g id="line2d_23">
      <path d="M 56.413438 636.199776 
L 1172.413438 636.199776 
" clip-path="url(#p61949dec68)" style="fill: none; stroke-dasharray: 5.12,1.28,0.8,1.28; stroke-dashoffset: 0; stroke: #000000; stroke-width: 0.8"/>
     </g>
     <g id="line2d_24">
      <g>
       <use xlink:href="#m331aec3d1c" x="56.413438" y="636.199776" style="stroke: #000000; stroke-width: 0.8"/>
      </g>
     </g>
     <g id="text_13">
      <!-- −4 -->
      <g transform="translate(34.67125 639.998995) scale(0.1 -0.1)">
       <use xlink:href="#DejaVuSans-2212"/>
       <use xlink:href="#DejaVuSans-34" x="83.789062"/>
      </g>
     </g>
    </g>
    <g id="ytick_4">
     <g id="line2d_25">
      <path d="M 56.413438 442.425284 
L 1172.413438 442.425284 
" clip-path="url(#p61949dec68)" style="fill: none; stroke-dasharray: 5.12,1.28,0.8,1.28; stroke-dashoffset: 0; stroke: #000000; stroke-width: 0.8"/>
     </g>
     <g id="line2d_26">
      <g>
       <use xlink:href="#m331aec3d1c" x="56.413438" y="442.425284" style="stroke: #000000; stroke-width: 0.8"/>
      </g>
     </g>
     <g id="text_14">
      <!-- −2 -->
      <g transform="translate(34.67125 446.224503) scale(0.1 -0.1)">
       <use xlink:href="#DejaVuSans-2212"/>
       <use xlink:href="#DejaVuSans-32" x="83.789062"/>
      </g>
     </g>
    </g>
    <g id="ytick_5">
     <g id="line2d_27">
      <path d="M 56.413438 248.650792 
L 1172.413438 248.650792 
" clip-path="url(#p61949dec68)" style="fill: none; stroke-dasharray: 5.12,1.28,0.8,1.28; stroke-dashoffset: 0; stroke: #000000; stroke-width: 0.8"/>
     </g>
     <g id="line2d_28">
      <g>
       <use xlink:href="#m331aec3d1c" x="56.413438" y="248.650792" style="stroke: #000000; stroke-width: 0.8"/>
      </g>
     </g>
     <g id="text_15">
      <!-- 0 -->
      <g transform="translate(43.050938 252.450011) scale(0.1 -0.1)">
       <use xlink:href="#DejaVuSans-30"/>
      </g>
     </g>
    </g>
    <g id="ytick_6">
     <g id="line2d_29">
      <path d="M 56.413438 54.876301 
L 1172.413438 54.876301 
" clip-path="url(#p61949dec68)" style="fill: none; stroke-dasharray: 5.12,1.28,0.8,1.28; stroke-dashoffset: 0; stroke: #000000; stroke-width: 0.8"/>
     </g>
     <g id="line2d_30">
      <g>
       <use xlink:href="#m331aec3d1c" x="56.413438" y="54.876301" style="stroke: #000000; stroke-width: 0.8"/>
      </g>
     </g>
     <g id="text_16">
      <!-- 2 -->
      <g transform="translate(43.050938 58.675519) scale(0.1 -0.1)">
       <use xlink:href="#DejaVuSans-32"/>
      </g>
     </g>
    </g>
    <g id="text_17">
     <!-- TSNE_C2 -->
     <g transform="translate(25.0125 619.824375) rotate(-90) scale(0.24 -0.24)">
      <defs>
       <path id="DejaVuSans-Bold-32" d="M 1844 884 
L 3897 884 
L 3897 0 
L 506 0 
L 506 884 
L 2209 2388 
Q 2438 2594 2547 2791 
Q 2656 2988 2656 3200 
Q 2656 3528 2436 3728 
Q 2216 3928 1850 3928 
Q 1569 3928 1234 3808 
Q 900 3688 519 3450 
L 519 4475 
Q 925 4609 1322 4679 
Q 1719 4750 2100 4750 
Q 2938 4750 3402 4381 
Q 3866 4013 3866 3353 
Q 3866 2972 3669 2642 
Q 3472 2313 2841 1759 
L 1844 884 
z
" transform="scale(0.015625)"/>
      </defs>
      <use xlink:href="#DejaVuSans-Bold-54"/>
      <use xlink:href="#DejaVuSans-Bold-53" x="68.212891"/>
      <use xlink:href="#DejaVuSans-Bold-4e" x="140.234375"/>
      <use xlink:href="#DejaVuSans-Bold-45" x="223.925781"/>
      <use xlink:href="#DejaVuSans-Bold-5f" x="292.236328"/>
      <use xlink:href="#DejaVuSans-Bold-43" x="342.236328"/>
      <use xlink:href="#DejaVuSans-Bold-32" x="415.625"/>
     </g>
    </g>
   </g>
   <g id="patch_3">
    <path d="M 56.413438 1116 
L 56.413438 7.2 
" style="fill: none; stroke: #000000; stroke-width: 0.8; stroke-linejoin: miter; stroke-linecap: square"/>
   </g>
   <g id="patch_4">
    <path d="M 1172.413438 1116 
L 1172.413438 7.2 
" style="fill: none; stroke: #000000; stroke-width: 0.8; stroke-linejoin: miter; stroke-linecap: square"/>
   </g>
   <g id="patch_5">
    <path d="M 56.413437 1116 
L 1172.413437 1116 
" style="fill: none; stroke: #000000; stroke-width: 0.8; stroke-linejoin: miter; stroke-linecap: square"/>
   </g>
   <g id="patch_6">
    <path d="M 56.413437 7.2 
L 1172.413437 7.2 
" style="fill: none; stroke: #000000; stroke-width: 0.8; stroke-linejoin: miter; stroke-linecap: square"/>
   </g>
   <g id="text_18">
    <!-- 80 -->
    <g style="fill: #008000" transform="translate(669.981089 825.626393) scale(0.12 -0.12)">
     <use xlink:href="#DejaVuSans-38"/>
     <use xlink:href="#DejaVuSans-30" x="63.623047"/>
    </g>
   </g>
   <g id="text_19">
    <!-- 46 -->
    <g style="fill: #008000" transform="translate(316.674265 1056.067023) scale(0.12 -0.12)">
     <use xlink:href="#DejaVuSans-34"/>
     <use xlink:href="#DejaVuSans-36" x="63.623047"/>
    </g>
   </g>
   <g id="text_20">
    <!-- 95 -->
    <g style="fill: #008000" transform="translate(449.768512 984.80522) scale(0.12 -0.12)">
     <defs>
      <path id="DejaVuSans-39" d="M 703 97 
L 703 672 
Q 941 559 1184 500 
Q 1428 441 1663 441 
Q 2288 441 2617 861 
Q 2947 1281 2994 2138 
Q 2813 1869 2534 1725 
Q 2256 1581 1919 1581 
Q 1219 1581 811 2004 
Q 403 2428 403 3163 
Q 403 3881 828 4315 
Q 1253 4750 1959 4750 
Q 2769 4750 3195 4129 
Q 3622 3509 3622 2328 
Q 3622 1225 3098 567 
Q 2575 -91 1691 -91 
Q 1453 -91 1209 -44 
Q 966 3 703 97 
z
M 1959 2075 
Q 2384 2075 2632 2365 
Q 2881 2656 2881 3163 
Q 2881 3666 2632 3958 
Q 2384 4250 1959 4250 
Q 1534 4250 1286 3958 
Q 1038 3666 1038 3163 
Q 1038 2656 1286 2365 
Q 1534 2075 1959 2075 
z
" transform="scale(0.015625)"/>
      <path id="DejaVuSans-35" d="M 691 4666 
L 3169 4666 
L 3169 4134 
L 1269 4134 
L 1269 2991 
Q 1406 3038 1543 3061 
Q 1681 3084 1819 3084 
Q 2600 3084 3056 2656 
Q 3513 2228 3513 1497 
Q 3513 744 3044 326 
Q 2575 -91 1722 -91 
Q 1428 -91 1123 -41 
Q 819 9 494 109 
L 494 744 
Q 775 591 1075 516 
Q 1375 441 1709 441 
Q 2250 441 2565 725 
Q 2881 1009 2881 1497 
Q 2881 1984 2565 2268 
Q 2250 2553 1709 2553 
Q 1456 2553 1204 2497 
Q 953 2441 691 2322 
L 691 4666 
z
" transform="scale(0.015625)"/>
     </defs>
     <use xlink:href="#DejaVuSans-39"/>
     <use xlink:href="#DejaVuSans-35" x="63.623047"/>
    </g>
   </g>
   <g id="text_21">
    <!-- 50 -->
    <g style="fill: #008000" transform="translate(239.567346 1035.39379) scale(0.12 -0.12)">
     <use xlink:href="#DejaVuSans-35"/>
     <use xlink:href="#DejaVuSans-30" x="63.623047"/>
    </g>
   </g>
   <g id="text_22">
    <!-- 82 -->
    <g style="fill: #008000" transform="translate(239.567346 1035.39379) scale(0.12 -0.12)">
     <use xlink:href="#DejaVuSans-38"/>
     <use xlink:href="#DejaVuSans-32" x="63.623047"/>
    </g>
   </g>
   <g id="text_23">
    <!-- 92 -->
    <g style="fill: #008000" transform="translate(647.23153 522.49076) scale(0.12 -0.12)">
     <use xlink:href="#DejaVuSans-39"/>
     <use xlink:href="#DejaVuSans-32" x="63.623047"/>
    </g>
   </g>
   <g id="text_24">
    <!-- 97 -->
    <g style="fill: #008000" transform="translate(549.883878 607.150169) scale(0.12 -0.12)">
     <defs>
      <path id="DejaVuSans-37" d="M 525 4666 
L 3525 4666 
L 3525 4397 
L 1831 0 
L 1172 0 
L 2766 4134 
L 525 4134 
L 525 4666 
z
" transform="scale(0.015625)"/>
     </defs>
     <use xlink:href="#DejaVuSans-39"/>
     <use xlink:href="#DejaVuSans-37" x="63.623047"/>
    </g>
   </g>
   <g id="text_25">
    <!-- 97 -->
    <g style="fill: #008000" transform="translate(196.718455 517.688213) scale(0.12 -0.12)">
     <use xlink:href="#DejaVuSans-39"/>
     <use xlink:href="#DejaVuSans-37" x="63.623047"/>
    </g>
   </g>
   <g id="text_26">
    <!-- 91 -->
    <g style="fill: #008000" transform="translate(549.883878 607.150169) scale(0.12 -0.12)">
     <defs>
      <path id="DejaVuSans-31" d="M 794 531 
L 1825 531 
L 1825 4091 
L 703 3866 
L 703 4441 
L 1819 4666 
L 2450 4666 
L 2450 531 
L 3481 531 
L 3481 0 
L 794 0 
L 794 531 
z
" transform="scale(0.015625)"/>
     </defs>
     <use xlink:href="#DejaVuSans-39"/>
     <use xlink:href="#DejaVuSans-31" x="63.623047"/>
    </g>
   </g>
   <g id="text_27">
    <!-- 93 -->
    <g style="fill: #008000" transform="translate(560.174317 361.127115) scale(0.12 -0.12)">
     <defs>
      <path id="DejaVuSans-33" d="M 2597 2516 
Q 3050 2419 3304 2112 
Q 3559 1806 3559 1356 
Q 3559 666 3084 287 
Q 2609 -91 1734 -91 
Q 1441 -91 1130 -33 
Q 819 25 488 141 
L 488 750 
Q 750 597 1062 519 
Q 1375 441 1716 441 
Q 2309 441 2620 675 
Q 2931 909 2931 1356 
Q 2931 1769 2642 2001 
Q 2353 2234 1838 2234 
L 1294 2234 
L 1294 2753 
L 1863 2753 
Q 2328 2753 2575 2939 
Q 2822 3125 2822 3475 
Q 2822 3834 2567 4026 
Q 2313 4219 1838 4219 
Q 1578 4219 1281 4162 
Q 984 4106 628 3988 
L 628 4550 
Q 988 4650 1302 4700 
Q 1616 4750 1894 4750 
Q 2613 4750 3031 4423 
Q 3450 4097 3450 3541 
Q 3450 3153 3228 2886 
Q 3006 2619 2597 2516 
z
" transform="scale(0.015625)"/>
     </defs>
     <use xlink:href="#DejaVuSans-39"/>
     <use xlink:href="#DejaVuSans-33" x="63.623047"/>
    </g>
   </g>
   <g id="text_28">
    <!-- 95 -->
    <g style="fill: #008000" transform="translate(203.431157 358.999019) scale(0.12 -0.12)">
     <use xlink:href="#DejaVuSans-39"/>
     <use xlink:href="#DejaVuSans-35" x="63.623047"/>
    </g>
   </g>
   <g id="text_29">
    <!-- 94 -->
    <g style="fill: #008000" transform="translate(203.431581 358.99903) scale(0.12 -0.12)">
     <use xlink:href="#DejaVuSans-39"/>
     <use xlink:href="#DejaVuSans-34" x="63.623047"/>
    </g>
   </g>
   <g id="text_30">
    <!-- 92 -->
    <g style="fill: #008000" transform="translate(559.996517 361.238386) scale(0.12 -0.12)">
     <use xlink:href="#DejaVuSans-39"/>
     <use xlink:href="#DejaVuSans-32" x="63.623047"/>
    </g>
   </g>
   <g id="text_31">
    <!-- 96 -->
    <g style="fill: #008000" transform="translate(196.718301 517.688259) scale(0.12 -0.12)">
     <use xlink:href="#DejaVuSans-39"/>
     <use xlink:href="#DejaVuSans-36" x="63.623047"/>
    </g>
   </g>
   <g id="text_32">
    <!-- 99 -->
    <g style="fill: #008000" transform="translate(456.684752 175.369687) scale(0.12 -0.12)">
     <use xlink:href="#DejaVuSans-39"/>
     <use xlink:href="#DejaVuSans-39" x="63.623047"/>
    </g>
   </g>
   <g id="text_33">
    <!-- 92 -->
    <g style="fill: #008000" transform="translate(443.985456 523.724701) scale(0.12 -0.12)">
     <use xlink:href="#DejaVuSans-39"/>
     <use xlink:href="#DejaVuSans-32" x="63.623047"/>
    </g>
   </g>
   <g id="text_34">
    <!-- 93 -->
    <g style="fill: #008000" transform="translate(572.084788 254.267233) scale(0.12 -0.12)">
     <use xlink:href="#DejaVuSans-39"/>
     <use xlink:href="#DejaVuSans-33" x="63.623047"/>
    </g>
   </g>
   <g id="text_35">
    <!-- 97 -->
    <g style="fill: #008000" transform="translate(647.23153 522.49076) scale(0.12 -0.12)">
     <use xlink:href="#DejaVuSans-39"/>
     <use xlink:href="#DejaVuSans-37" x="63.623047"/>
    </g>
   </g>
   <g id="text_36">
    <!-- 90 -->
    <g style="fill: #008000" transform="translate(456.684752 175.369687) scale(0.12 -0.12)">
     <use xlink:href="#DejaVuSans-39"/>
     <use xlink:href="#DejaVuSans-30" x="63.623047"/>
    </g>
   </g>
   <g id="text_37">
    <!-- 98 -->
    <g style="fill: #008000" transform="translate(669.981089 825.626393) scale(0.12 -0.12)">
     <use xlink:href="#DejaVuSans-39"/>
     <use xlink:href="#DejaVuSans-38" x="63.623047"/>
    </g>
   </g>
   <g id="text_38">
    <!-- 91 -->
    <g style="fill: #008000" transform="translate(438.621538 1065.6) scale(0.12 -0.12)">
     <use xlink:href="#DejaVuSans-39"/>
     <use xlink:href="#DejaVuSans-31" x="63.623047"/>
    </g>
   </g>
   <g id="text_39">
    <!-- 92 -->
    <g style="fill: #008000" transform="translate(548.451466 1033.925387) scale(0.12 -0.12)">
     <use xlink:href="#DejaVuSans-39"/>
     <use xlink:href="#DejaVuSans-32" x="63.623047"/>
    </g>
   </g>
   <g id="text_40">
    <!-- 94 -->
    <g style="fill: #008000" transform="translate(669.981089 825.626393) scale(0.12 -0.12)">
     <use xlink:href="#DejaVuSans-39"/>
     <use xlink:href="#DejaVuSans-34" x="63.623047"/>
    </g>
   </g>
   <g id="text_41">
    <!-- 88 -->
    <g style="fill: #008000" transform="translate(172.499197 821.428896) scale(0.12 -0.12)">
     <use xlink:href="#DejaVuSans-38"/>
     <use xlink:href="#DejaVuSans-38" x="63.623047"/>
    </g>
   </g>
   <g id="text_42">
    <!-- 97 -->
    <g style="fill: #008000" transform="translate(687.462039 366.373812) scale(0.12 -0.12)">
     <use xlink:href="#DejaVuSans-39"/>
     <use xlink:href="#DejaVuSans-37" x="63.623047"/>
    </g>
   </g>
   <g id="text_43">
    <!-- 32 -->
    <g style="fill: #008000" transform="translate(699.005605 252.953421) scale(0.12 -0.12)">
     <use xlink:href="#DejaVuSans-33"/>
     <use xlink:href="#DejaVuSans-32" x="63.623047"/>
    </g>
   </g>
   <g id="text_44">
    <!-- 12 -->
    <g style="fill: #008000" transform="translate(548.451466 1033.925387) scale(0.12 -0.12)">
     <use xlink:href="#DejaVuSans-31"/>
     <use xlink:href="#DejaVuSans-32" x="63.623047"/>
    </g>
   </g>
   <g id="text_45">
    <!-- 25 -->
    <g style="fill: #008000" transform="translate(251.847688 437.342087) scale(0.12 -0.12)">
     <use xlink:href="#DejaVuSans-32"/>
     <use xlink:href="#DejaVuSans-35" x="63.623047"/>
    </g>
   </g>
   <g id="text_46">
    <!-- 72 -->
    <g style="fill: #008000" transform="translate(278.585196 606.386146) scale(0.12 -0.12)">
     <use xlink:href="#DejaVuSans-37"/>
     <use xlink:href="#DejaVuSans-32" x="63.623047"/>
    </g>
   </g>
   <g id="text_47">
    <!-- 67 -->
    <g style="fill: #008000" transform="translate(196.718571 517.688213) scale(0.12 -0.12)">
     <use xlink:href="#DejaVuSans-36"/>
     <use xlink:href="#DejaVuSans-37" x="63.623047"/>
    </g>
   </g>
   <g id="text_48">
    <!-- 87 -->
    <g style="fill: #008000" transform="translate(278.585196 606.386146) scale(0.12 -0.12)">
     <use xlink:href="#DejaVuSans-38"/>
     <use xlink:href="#DejaVuSans-37" x="63.623047"/>
    </g>
   </g>
   <g id="text_49">
    <!-- 85 -->
    <g style="fill: #008000" transform="translate(492.779817 758.119957) scale(0.12 -0.12)">
     <use xlink:href="#DejaVuSans-38"/>
     <use xlink:href="#DejaVuSans-35" x="63.623047"/>
    </g>
   </g>
   <g id="text_50">
    <!-- 77 -->
    <g style="fill: #008000" transform="translate(570.402498 433.696039) scale(0.12 -0.12)">
     <use xlink:href="#DejaVuSans-37"/>
     <use xlink:href="#DejaVuSans-37" x="63.623047"/>
    </g>
   </g>
   <g id="text_51">
    <!-- 70 -->
    <g style="fill: #008000" transform="translate(388.025756 890.737895) scale(0.12 -0.12)">
     <use xlink:href="#DejaVuSans-37"/>
     <use xlink:href="#DejaVuSans-30" x="63.623047"/>
    </g>
   </g>
   <g id="text_52">
    <!-- 48 -->
    <g style="fill: #008000" transform="translate(111.471105 835.239295) scale(0.12 -0.12)">
     <use xlink:href="#DejaVuSans-34"/>
     <use xlink:href="#DejaVuSans-38" x="63.623047"/>
    </g>
   </g>
   <g id="text_53">
    <!-- 59 -->
    <g style="fill: #008000" transform="translate(290.924893 689.88953) scale(0.12 -0.12)">
     <use xlink:href="#DejaVuSans-35"/>
     <use xlink:href="#DejaVuSans-39" x="63.623047"/>
    </g>
   </g>
   <g id="text_54">
    <!-- 77 -->
    <g style="fill: #008000" transform="translate(111.470912 835.239248) scale(0.12 -0.12)">
     <use xlink:href="#DejaVuSans-37"/>
     <use xlink:href="#DejaVuSans-37" x="63.623047"/>
    </g>
   </g>
   <g id="text_55">
    <!-- 26 -->
    <g style="fill: #008000" transform="translate(111.470912 835.239248) scale(0.12 -0.12)">
     <use xlink:href="#DejaVuSans-32"/>
     <use xlink:href="#DejaVuSans-36" x="63.623047"/>
    </g>
   </g>
   <g id="text_56">
    <!-- 15 -->
    <g style="fill: #008000" transform="translate(234.26982 761.385149) scale(0.12 -0.12)">
     <use xlink:href="#DejaVuSans-31"/>
     <use xlink:href="#DejaVuSans-35" x="63.623047"/>
    </g>
   </g>
   <g id="text_57">
    <!-- 80 -->
    <g style="fill: #008000" transform="translate(572.084497 254.267216) scale(0.12 -0.12)">
     <use xlink:href="#DejaVuSans-38"/>
     <use xlink:href="#DejaVuSans-30" x="63.623047"/>
    </g>
   </g>
   <g id="text_58">
    <!-- 3 -->
    <g style="fill: #008000" transform="translate(572.085056 254.267239) scale(0.12 -0.12)">
     <use xlink:href="#DejaVuSans-33"/>
    </g>
   </g>
   <g id="text_59">
    <!-- 40 -->
    <g style="fill: #008000" transform="translate(669.981089 825.626393) scale(0.12 -0.12)">
     <use xlink:href="#DejaVuSans-34"/>
     <use xlink:href="#DejaVuSans-30" x="63.623047"/>
    </g>
   </g>
   <g id="text_60">
    <!-- 6 -->
    <g style="fill: #008000" transform="translate(228.040742 253.411699) scale(0.12 -0.12)">
     <use xlink:href="#DejaVuSans-36"/>
    </g>
   </g>
   <g id="text_61">
    <!-- 74 -->
    <g style="fill: #008000" transform="translate(555.035278 690.406687) scale(0.12 -0.12)">
     <use xlink:href="#DejaVuSans-37"/>
     <use xlink:href="#DejaVuSans-34" x="63.623047"/>
    </g>
   </g>
   <g id="text_62">
    <!-- 43 -->
    <g style="fill: #008000" transform="translate(544.930099 920.612254) scale(0.12 -0.12)">
     <use xlink:href="#DejaVuSans-34"/>
     <use xlink:href="#DejaVuSans-33" x="63.623047"/>
    </g>
   </g>
   <g id="text_63">
    <!-- 0 -->
    <g style="fill: #008000" transform="translate(296.030876 826.891564) scale(0.12 -0.12)">
     <use xlink:href="#DejaVuSans-30"/>
    </g>
   </g>
   <g id="text_64">
    <!-- 95 -->
    <g style="fill: #008000" transform="translate(290.924893 689.88953) scale(0.12 -0.12)">
     <use xlink:href="#DejaVuSans-39"/>
     <use xlink:href="#DejaVuSans-35" x="63.623047"/>
    </g>
   </g>
   <g id="text_65">
    <!-- 0 -->
    <g style="fill: #008000" transform="translate(669.981089 825.626393) scale(0.12 -0.12)">
     <use xlink:href="#DejaVuSans-30"/>
    </g>
   </g>
   <g id="text_66">
    <!-- 0 -->
    <g style="fill: #008000" transform="translate(771.286358 57.6) scale(0.12 -0.12)">
     <use xlink:href="#DejaVuSans-30"/>
    </g>
   </g>
   <g id="text_67">
    <!-- 27 -->
    <g style="fill: #008000" transform="translate(355.52508 126.234395) scale(0.12 -0.12)">
     <use xlink:href="#DejaVuSans-32"/>
     <use xlink:href="#DejaVuSans-37" x="63.623047"/>
    </g>
   </g>
   <g id="text_68">
    <!-- 36 -->
    <g style="fill: #008000" transform="translate(161.311552 252.394064) scale(0.12 -0.12)">
     <use xlink:href="#DejaVuSans-33"/>
     <use xlink:href="#DejaVuSans-36" x="63.623047"/>
    </g>
   </g>
   <g id="text_69">
    <!-- 74 -->
    <g style="fill: #008000" transform="translate(1121.686165 182.371189) scale(0.12 -0.12)">
     <use xlink:href="#DejaVuSans-37"/>
     <use xlink:href="#DejaVuSans-34" x="63.623047"/>
    </g>
   </g>
   <g id="text_70">
    <!-- 52 -->
    <g style="fill: #008000" transform="translate(598.734812 437.740511) scale(0.12 -0.12)">
     <use xlink:href="#DejaVuSans-35"/>
     <use xlink:href="#DejaVuSans-32" x="63.623047"/>
    </g>
   </g>
   <g id="text_71">
    <!-- 0 -->
    <g style="fill: #008000" transform="translate(922.213327 114.183687) scale(0.12 -0.12)">
     <use xlink:href="#DejaVuSans-30"/>
    </g>
   </g>
   <g id="text_72">
    <!-- 44 -->
    <g style="fill: #008000" transform="translate(326.538915 121.788057) scale(0.12 -0.12)">
     <use xlink:href="#DejaVuSans-34"/>
     <use xlink:href="#DejaVuSans-34" x="63.623047"/>
    </g>
   </g>
   <g id="text_73">
    <!-- 60 -->
    <g style="fill: #008000" transform="translate(241.267037 182.327253) scale(0.12 -0.12)">
     <use xlink:href="#DejaVuSans-36"/>
     <use xlink:href="#DejaVuSans-30" x="63.623047"/>
    </g>
   </g>
   <g id="text_74">
    <!-- 0 -->
    <g style="fill: #008000" transform="translate(647.23153 522.49076) scale(0.12 -0.12)">
     <use xlink:href="#DejaVuSans-30"/>
    </g>
   </g>
   <g id="text_75">
    <!-- 58 -->
    <g style="fill: #008000" transform="translate(289.543832 924.784202) scale(0.12 -0.12)">
     <use xlink:href="#DejaVuSans-35"/>
     <use xlink:href="#DejaVuSans-38" x="63.623047"/>
    </g>
   </g>
   <g id="text_76">
    <!-- 80 -->
    <g style="fill: #008000" transform="translate(107.14071 250.970677) scale(0.12 -0.12)">
     <use xlink:href="#DejaVuSans-38"/>
     <use xlink:href="#DejaVuSans-30" x="63.623047"/>
    </g>
   </g>
   <g id="text_77">
    <!-- 0 -->
    <g style="fill: #008000" transform="translate(251.847688 437.342087) scale(0.12 -0.12)">
     <use xlink:href="#DejaVuSans-30"/>
    </g>
   </g>
   <g id="text_78">
    <!-- 0 -->
    <g style="fill: #008000" transform="translate(555.035136 690.406594) scale(0.12 -0.12)">
     <use xlink:href="#DejaVuSans-30"/>
    </g>
   </g>
   <g id="text_79">
    <!-- 0 -->
    <g style="fill: #008000" transform="translate(203.431465 358.999053) scale(0.12 -0.12)">
     <use xlink:href="#DejaVuSans-30"/>
    </g>
   </g>
   <g id="legend_1">
    <g id="patch_7">
     <path d="M 977.882187 1104 
L 1155.613438 1104 
Q 1160.413438 1104 1160.413438 1099.2 
L 1160.413438 1066.3725 
Q 1160.413438 1061.5725 1155.613438 1061.5725 
L 977.882187 1061.5725 
Q 973.082188 1061.5725 973.082188 1066.3725 
L 973.082188 1099.2 
Q 973.082188 1104 977.882187 1104 
z
" style="fill: #ffffff; opacity: 0.8; stroke: #cccccc; stroke-linejoin: miter"/>
    </g>
    <g id="PathCollection_2">
     <g>
      <use xlink:href="#ma5490ec7c1" x="1006.682188" y="1083.10875" style="fill: #008000; stroke: #008000"/>
     </g>
    </g>
    <g id="text_80">
     <!-- Model III -->
     <g transform="translate(1049.882188 1089.40875) scale(0.24 -0.24)">
      <defs>
       <path id="DejaVuSans-4d" d="M 628 4666 
L 1569 4666 
L 2759 1491 
L 3956 4666 
L 4897 4666 
L 4897 0 
L 4281 0 
L 4281 4097 
L 3078 897 
L 2444 897 
L 1241 4097 
L 1241 0 
L 628 0 
L 628 4666 
z
" transform="scale(0.015625)"/>
       <path id="DejaVuSans-6f" d="M 1959 3097 
Q 1497 3097 1228 2736 
Q 959 2375 959 1747 
Q 959 1119 1226 758 
Q 1494 397 1959 397 
Q 2419 397 2687 759 
Q 2956 1122 2956 1747 
Q 2956 2369 2687 2733 
Q 2419 3097 1959 3097 
z
M 1959 3584 
Q 2709 3584 3137 3096 
Q 3566 2609 3566 1747 
Q 3566 888 3137 398 
Q 2709 -91 1959 -91 
Q 1206 -91 779 398 
Q 353 888 353 1747 
Q 353 2609 779 3096 
Q 1206 3584 1959 3584 
z
" transform="scale(0.015625)"/>
       <path id="DejaVuSans-64" d="M 2906 2969 
L 2906 4863 
L 3481 4863 
L 3481 0 
L 2906 0 
L 2906 525 
Q 2725 213 2448 61 
Q 2172 -91 1784 -91 
Q 1150 -91 751 415 
Q 353 922 353 1747 
Q 353 2572 751 3078 
Q 1150 3584 1784 3584 
Q 2172 3584 2448 3432 
Q 2725 3281 2906 2969 
z
M 947 1747 
Q 947 1113 1208 752 
Q 1469 391 1925 391 
Q 2381 391 2643 752 
Q 2906 1113 2906 1747 
Q 2906 2381 2643 2742 
Q 2381 3103 1925 3103 
Q 1469 3103 1208 2742 
Q 947 2381 947 1747 
z
" transform="scale(0.015625)"/>
       <path id="DejaVuSans-65" d="M 3597 1894 
L 3597 1613 
L 953 1613 
Q 991 1019 1311 708 
Q 1631 397 2203 397 
Q 2534 397 2845 478 
Q 3156 559 3463 722 
L 3463 178 
Q 3153 47 2828 -22 
Q 2503 -91 2169 -91 
Q 1331 -91 842 396 
Q 353 884 353 1716 
Q 353 2575 817 3079 
Q 1281 3584 2069 3584 
Q 2775 3584 3186 3129 
Q 3597 2675 3597 1894 
z
M 3022 2063 
Q 3016 2534 2758 2815 
Q 2500 3097 2075 3097 
Q 1594 3097 1305 2825 
Q 1016 2553 972 2059 
L 3022 2063 
z
" transform="scale(0.015625)"/>
       <path id="DejaVuSans-6c" d="M 603 4863 
L 1178 4863 
L 1178 0 
L 603 0 
L 603 4863 
z
" transform="scale(0.015625)"/>
       <path id="DejaVuSans-20" transform="scale(0.015625)"/>
       <path id="DejaVuSans-49" d="M 628 4666 
L 1259 4666 
L 1259 0 
L 628 0 
L 628 4666 
z
" transform="scale(0.015625)"/>
      </defs>
      <use xlink:href="#DejaVuSans-4d"/>
      <use xlink:href="#DejaVuSans-6f" x="86.279297"/>
      <use xlink:href="#DejaVuSans-64" x="147.460938"/>
      <use xlink:href="#DejaVuSans-65" x="210.9375"/>
      <use xlink:href="#DejaVuSans-6c" x="272.460938"/>
      <use xlink:href="#DejaVuSans-20" x="300.244141"/>
      <use xlink:href="#DejaVuSans-49" x="332.03125"/>
      <use xlink:href="#DejaVuSans-49" x="361.523438"/>
      <use xlink:href="#DejaVuSans-49" x="391.015625"/>
     </g>
    </g>
   </g>
  </g>
 </g>
 <defs>
  <clipPath id="p61949dec68">
   <rect x="56.413438" y="7.2" width="1116" height="1108.8"/>
  </clipPath>
 </defs>
</svg>
